<?xml version="1.0" encoding="UTF-8" standalone="no"?>
<!DOCTYPE svg PUBLIC "-//W3C//DTD SVG 1.1//EN" "http://www.w3.org/Graphics/SVG/1.1/DTD/svg11.dtd">
<svg width="100%" height="100%" viewBox="0 0 200 200" version="1.1" xmlns="http://www.w3.org/2000/svg" xmlns:xlink="http://www.w3.org/1999/xlink" xml:space="preserve" xmlns:serif="http://www.serif.com/" style="fill-rule:evenodd;clip-rule:evenodd;stroke-linejoin:round;stroke-miterlimit:2;">
    <g transform="matrix(1,0,0,1,-337.538833,0)">
        <g id="logo-bookgolas" transform="matrix(0.67932,0,0,0.67932,772.123896,-425.460604)">
            <rect x="-639.736" y="626.304" width="294.412" height="294.412" style="fill:none;"/>
            <g id="book-1.png" transform="matrix(1.040426,0,0,1.040426,-635.540146,642.353932)">
                <path d="M129.603,133.463C134.882,148.089 150.79,183.343 149.193,185.188C147.49,187.157 146.277,183.532 117.427,192.237C114.762,193.041 96.449,198.567 84.487,203.465C78.383,205.963 78.644,198.966 74.733,190.396C73.328,187.319 47.581,122.035 45.139,116.652C38.855,102.795 40.325,101.986 41.426,101.38C47.784,97.881 106.393,79.079 111.187,87.672C111.585,88.385 128.612,130.851 129.603,133.463Z" style="fill:url(#_Linear1);"/>
                <path d="M142.292,64.135C145.194,62.605 177.328,45.668 179.428,46.739C181.466,47.779 212.944,129.518 219.673,145.426C222.057,151.063 213.392,150.964 192.494,161.488C159.568,178.07 161.113,180.609 158.258,182.044C157.361,182.495 156.259,181.745 153.538,174.485C151.805,169.859 151.312,168.614 140.019,140.339C135.792,129.754 130.052,115.381 122.166,95.624C118.351,86.067 115.898,85.129 121.075,79.066C124.624,75.978 124.586,76.067 128.212,73.129C131.214,71.018 131.144,71.066 134.202,69.019C138.237,66.495 138.116,66.474 142.292,64.135Z" style="fill:white;"/>
                <path d="M198.664,58.941C200.15,58.351 200.11,58.468 201.599,57.776C205.463,55.981 205.238,59.606 211.408,74.539C242.472,149.719 241.273,150.191 244.229,156.615C246.554,161.668 242.149,160.489 193.481,181.455C176.588,188.732 174.014,187.107 174.277,191.509C175.08,204.969 152.058,212.439 144.544,204.464C139.853,199.485 138.973,203.209 132.609,205.785C127.983,207.657 93.207,221.733 74.403,228.223C69.156,230.034 69.406,227.295 67.764,223.386C65.861,218.854 53.344,189.059 44.81,166.391C31.057,129.864 27.154,127.808 32.496,125.49C36.883,123.586 39.23,120.369 42.079,127.66C44.46,133.75 69.656,198.217 72.234,203.628C74.914,209.254 76.029,214.751 81.419,212.288C88.699,208.96 94.63,207.427 96.526,206.564C99.342,205.281 121.621,197.538 137.454,194.184C141.802,193.262 145.665,192.672 148.504,192.637C155.296,192.554 157.998,197.76 160.122,191.399C164.41,178.555 225.193,155.434 228.053,153.104C229.493,151.931 229.618,151.323 221.362,130.554C197.094,69.507 196.827,69.726 194.8,64.395C193.99,60.385 195.286,60.562 198.664,58.941Z" style="fill:url(#_Linear2);"/>
            </g>
        </g>
    </g>
    <defs>
        <linearGradient id="_Linear1" x1="0" y1="0" x2="1" y2="0" gradientUnits="userSpaceOnUse" gradientTransform="matrix(97.189853,72.63064,-72.63064,97.189853,30.348343,101.049324)"><stop offset="0" style="stop-color:white;stop-opacity:0.8"/><stop offset="1" style="stop-color:rgb(40,40,40);stop-opacity:1"/></linearGradient>
        <linearGradient id="_Linear2" x1="0" y1="0" x2="1" y2="0" gradientUnits="userSpaceOnUse" gradientTransform="matrix(-237.029944,-53.525156,53.525156,-237.029944,267.225294,167.944383)"><stop offset="0" style="stop-color:rgb(52,52,52);stop-opacity:1"/><stop offset="0.67" style="stop-color:rgb(67,67,67);stop-opacity:1"/><stop offset="1" style="stop-color:rgb(163,163,163);stop-opacity:1"/></linearGradient>
    </defs>
</svg>
